<mxfile host="app.diagrams.net" modified="2021-10-12T12:19:55.402Z" agent="5.0 (X11)" etag="M9YGREqTd0_CtOL01ytP" version="15.5.1" type="github">
  <diagram id="y85TKeP2wBH4dLe60alc" name="Page-1">
    <mxGraphModel dx="1691" dy="773" grid="1" gridSize="10" guides="1" tooltips="1" connect="1" arrows="1" fold="1" page="1" pageScale="1" pageWidth="850" pageHeight="1100" math="0" shadow="0">
      <root>
        <mxCell id="0" />
        <mxCell id="1" parent="0" />
        <mxCell id="Xjbe4XN_0XujpbxIoSMV-4" value="" style="whiteSpace=wrap;html=1;aspect=fixed;" parent="1" vertex="1">
          <mxGeometry x="-690" y="600" width="1120" height="1120" as="geometry" />
        </mxCell>
        <mxCell id="Xjbe4XN_0XujpbxIoSMV-3" value="" style="whiteSpace=wrap;html=1;fillColor=#dae8fc;strokeColor=#6c8ebf;" parent="1" vertex="1">
          <mxGeometry x="-460" y="600" width="890" height="1120" as="geometry" />
        </mxCell>
        <mxCell id="Xjbe4XN_0XujpbxIoSMV-5" value="&lt;font style=&quot;font-size: 26px&quot;&gt;Administrateur&lt;/font&gt;" style="shape=umlActor;verticalLabelPosition=bottom;verticalAlign=top;html=1;outlineConnect=0;" parent="1" vertex="1">
          <mxGeometry x="-650" y="1020" width="130" height="260" as="geometry" />
        </mxCell>
        <mxCell id="Xjbe4XN_0XujpbxIoSMV-7" value="Cas d&#39;utilisation Administrateur" style="text;html=1;strokeColor=none;fillColor=none;align=center;verticalAlign=middle;whiteSpace=wrap;rounded=0;fontSize=28;" parent="1" vertex="1">
          <mxGeometry x="-200" y="610" width="840" height="30" as="geometry" />
        </mxCell>
        <mxCell id="Xjbe4XN_0XujpbxIoSMV-8" value="&lt;div&gt;Saisie des périodes&lt;/div&gt;&lt;div&gt;de congés scolaires&lt;/div&gt;&lt;div&gt;et jours fériés&lt;br&gt;&lt;/div&gt;" style="ellipse;whiteSpace=wrap;html=1;fontSize=28;" parent="1" vertex="1">
          <mxGeometry x="-150" y="860" width="330" height="200" as="geometry" />
        </mxCell>
        <mxCell id="Xjbe4XN_0XujpbxIoSMV-9" value="&lt;div&gt;Création et validation&lt;/div&gt;&lt;div&gt;des comptes&lt;/div&gt;&lt;div&gt;utilisateurs&lt;br&gt;&lt;/div&gt;" style="ellipse;whiteSpace=wrap;html=1;fontSize=28;" parent="1" vertex="1">
          <mxGeometry x="-140" y="1110" width="330" height="200" as="geometry" />
        </mxCell>
        <mxCell id="Xjbe4XN_0XujpbxIoSMV-12" value="" style="endArrow=none;html=1;rounded=0;fontSize=28;entryX=0;entryY=0.5;entryDx=0;entryDy=0;exitX=0.5;exitY=0.5;exitDx=0;exitDy=0;exitPerimeter=0;" parent="1" target="Xjbe4XN_0XujpbxIoSMV-8" edge="1">
          <mxGeometry width="50" height="50" relative="1" as="geometry">
            <mxPoint x="-575" y="1160" as="sourcePoint" />
            <mxPoint x="-269.9999999999998" y="770" as="targetPoint" />
          </mxGeometry>
        </mxCell>
        <mxCell id="Xjbe4XN_0XujpbxIoSMV-13" value="" style="endArrow=none;html=1;rounded=0;fontSize=28;exitX=0.5;exitY=0.5;exitDx=0;exitDy=0;exitPerimeter=0;" parent="1" target="Xjbe4XN_0XujpbxIoSMV-9" edge="1">
          <mxGeometry width="50" height="50" relative="1" as="geometry">
            <mxPoint x="-565" y="1170" as="sourcePoint" />
            <mxPoint x="-140" y="970" as="targetPoint" />
          </mxGeometry>
        </mxCell>
      </root>
    </mxGraphModel>
  </diagram>
</mxfile>
